# xmcd
#
# Track frame offsets: 
#        200
#        19137
#        39547
#
# Disc length: 779 seconds
#
# Revision: 4
# Processed by: cddbd v1.5.2PL0 Copyright (c) Steve Scherf et al.
# Submitted via: ExactAudioCopy v0.95b3
#
DISCID=1c030903
DTITLE=Cher - Love And Understanding
DYEAR=1991
DGENRE=Pop
TTITLE0=Love And Understanding (Single Version)
TTITLE1=Trail Of Broken Hearts (LP Version)
TTITLE2=If I Could Turn Back Time (LP Version)
EXTD=
EXTT0=
EXTT1=
EXTT2=
PLAYORDER=
